<?xml version="1.0" encoding="UTF-8"?>
<svg id="Layer_1" data-name="Layer 1" xmlns="http://www.w3.org/2000/svg" viewBox="0 0 407.03 147.69">
  <defs>
    <style>
      .cls-1 {
        font-family: Mont-Light, 'YQQXE B+ Mont';
        font-size: 29.64px;
        font-weight: 300;
      }

      .cls-1, .cls-2 {
        fill: #fff;
      }

      .cls-3 {
        fill: #2baf65;
      }
    </style>
  </defs>
  <text class="cls-1" transform="translate(243.9 67.39)"><tspan x="0" y="0">Inspire Lead </tspan><tspan x="0" y="28.84">Change </tspan></text>
  <path class="cls-2" d="M247.84,14.4c-.92-.66-1.89-1.32-3.01-2.05-.42-.27-.85-.52-1.28-.79l-.08-.05s-.2-.12-.27-.16l-.17-.09-.19-.07c-.78-.3-1.6-.45-2.43-.45-.24,0-.47.02-.71.04-1.5.15-2.88.78-4,1.81l-31.97,29.22c-2.47,2.26-2.98,5.97-1.21,8.82l3.77,6.1-1.28,2.07c-5.3.03-10.28,2.84-13.06,7.34-.04.08-.09.15-.13.24l-45.48-1.23-3.33-.09c1.22-8.41,4.11-16.37,8.61-23.68,11.5-18.72,31.52-29.9,53.57-29.9,5.93,0,11.83.84,17.49,2.5l1.36.39,9.05-8.26-3.97-1.38c-4.19-1.45-8.56-2.53-12.99-3.21-3.64-.56-7.35-.83-11.01-.83-5.73,0-11.5.69-17.13,2.04-9.29,2.22-17.91,6.14-25.64,11.66-8.01,5.72-14.7,12.9-19.9,21.36-5.18,8.45-8.57,17.67-10.05,27.4-.09.63-.19,1.25-.26,1.88-.23,1.83-.39,3.69-.48,5.54-.04.75-.06,1.49-.07,2.24v.28s.05.28.05.28c.38,1.85,1.53,3.49,3.16,4.49.47.28.99.51,1.57.71l41.28,13.06c.68.22,1.39.33,2.11.33,2.57,0,4.93-1.41,6.15-3.68l3.38-6.31,2.54.06c1.26,2.15,3.03,3.95,5.19,5.28,2.34,1.45,5.05,2.23,7.8,2.27l23.26,42.93v.02c-7.32,2.88-15.26,4.39-23.12,4.39-11.55,0-22.86-3.2-32.72-9.25-13.77-8.45-23.63-21.72-27.78-37.37l-.35-1.33-12-3.81,1.48,6.14c2.21,9.27,6.14,17.9,11.66,25.64,5.72,8.01,12.89,14.7,21.36,19.9,8.45,5.18,17.68,8.57,27.4,10.05,3.64.56,7.35.83,11.01.83,5.73,0,11.5-.69,17.13-2.04,5.67-1.36,11.14-3.36,16.24-5.95.78-.39,1.55-.8,2.29-1.21l.29-.16.24-.23c1.54-1.49,2.29-3.57,2.08-5.71-.03-.25-.07-.5-.13-.81l-.16-.76-.47-2.14-8.7-39.38c-.7-3.18-3.56-5.48-6.81-5.48-.07,0-.14,0-.22.01l-7.18.22-1.2-2.22c1.68-2.94,2.35-6.38,1.89-9.74-.27-1.89-.88-3.72-1.81-5.39l26.71-43.49.43-.72h0s4.06-6.75,4.06-6.75l-1.88-1.35ZM207.26,75.52c-.46.76-1.29,1.21-2.18,1.21-.47,0-.94-.12-1.34-.37-1.2-.74-1.57-2.31-.84-3.52.47-.77,1.3-1.22,2.19-1.22.47,0,.94.12,1.34.38.58.35.99.92,1.14,1.58.16.66.05,1.35-.31,1.93Z"/>
  <path class="cls-3" d="M249.73,15.75l-4.06,6.74h0s-.43.73-.43.73l-26.71,43.49c.93,1.67,1.54,3.5,1.81,5.39.46,3.36-.22,6.8-1.89,9.74l1.2,2.22,7.18-.22c.07-.01.14-.01.22-.01,3.25,0,6.11,2.3,6.81,5.48l8.7,39.38.47,2.14-14.91,1.67-23.26-42.93c-2.76-.04-5.46-.82-7.8-2.27-2.16-1.33-3.93-3.13-5.19-5.28l-2.54-.06-3.38,6.31c-1.22,2.27-3.58,3.68-6.15,3.68-.72,0-1.43-.11-2.11-.33l-41.28-13.06c-.59-.2-1.1-.43-1.57-.71-1.62-1.01-2.78-2.64-3.16-4.49l-.06-.28v-.28c.02-.75.04-1.49.08-2.24.09-1.85.26-3.71.48-5.54l14.2.12,45.48,1.23c.04-.08.09-.15.13-.24,2.78-4.5,7.76-7.31,13.06-7.34l1.28-2.07-3.77-6.1c-1.77-2.85-1.25-6.56,1.21-8.82l31.97-29.22c1.12-1.03,2.5-1.66,4-1.81.24-.02.47-.04.71-.04.82,0,1.65.15,2.43.45l.19.07.17.09c.07.04.27.16.27.16l.08.05c.42.27.85.52,1.28.79,1.12.73,2.1,1.39,3.01,2.05l1.88,1.35Z"/>
  <path class="cls-3" d="M226.57,83.74l-5.67.2-19.47,5.32c1.07.24,2.16.38,3.26.4l24.53,44.75.41.73h0s3.84,6.87,3.84,6.87l2.1-.97c1.03-.47,2.08-.99,3.27-1.6.44-.23.88-.48,1.32-.72l.09-.05s.2-.11.28-.15l.17-.11.15-.12c.65-.53,1.19-1.17,1.6-1.88.12-.21.22-.42.32-.64.61-1.38.75-2.89.41-4.37l-9.54-42.25c-.74-3.26-3.71-5.55-7.06-5.43Z"/>
  <path class="cls-2" d="M18.62,43.45v102.49H4.98V43.45h13.64Z"/>
  <path class="cls-2" d="M136.37,132.3l14.22,13.64H47.13c-1.82,0-3.41-.68-4.77-2.05-1.36-1.36-2.05-2.95-2.05-4.77V0h13.64v132.3h82.42Z"/>
  <circle class="cls-2" cx="204.76" cy="74.32" r="8.13"/>
  <circle class="cls-3" cx="11.93" cy="12.33" r="11.93"/>
</svg>